<svg viewBox="0 0 901.77 121.33" xmlns="http://www.w3.org/2000/svg"><g fill="#27254c"><path d="m407.23 42.85h-16.82v56.06h48.59v-56.06zm14.95 43.92h-14.95v-31.77h14.95z"/><path d="m672.43 42.85v12.14 31.77 12.15h44.85v-12.15h-28.03v-31.77h28.03v-12.14h-28.03z"/><path d="m745.74 42.85h-16.82v56.06h48.59v-56.06zm14.95 43.92h-14.95v-31.77h14.95z"/><path d="m807.54 42.85h-16.82v76.62h16.82v-20.56h31.77v-56.06zm14.95 43.92h-14.95v-31.77h14.95z"/><path d="m484.82 42.85h-31.77v56.06h48.59v-76.62h-16.82zm0 43.92h-14.95v-31.77h14.95z"/><path d="m579.92 22.29h16.82v76.62h-16.82z"/><path d="m532.95 42.85h-16.82v56.53h48.59v-12.62h-31.77v-9.34h31.77v-34.57zm14.95 22.43h-14.95v-10.28h14.95z"/><path d="m884.95 42.85h-31.77v56.06h48.59v-12.15h-31.77v-9.11h31.77v-34.8zm0 22.66h-14.95v-10.51h14.95z"/><path d="m611.16 30.64v12.14 14.66 12.02.13h31.77v17.17h-31.77v12.15h31.77 16.82v-29.32-12.15h-16.82-14.95v-14.66h31.77v-12.14h-31.77z"/><path d="m308.9 31.63h-16.81v16.82 16.82h-16.82v16.82h16.82v16.82h16.82v-16.82h-16.82v-16.82h16.82v-16.82h16.81v-16.82h-16.81z"/><path d="m325.73 65.27v16.82h16.82v-16.82-16.82h-16.82z"/><path d="m342.56 31.63v16.82h16.82v16.82 16.82 16.82h16.81v-16.82-16.82-16.82-16.82h-16.81z"/></g><path d="m0 47.84h25.65v25.65h-25.65z" fill="#624aff"/><path d="m99.14 73.49h25.65v25.65h-25.65z" fill="#624aff"/><path d="m176.09 99.14h-25.65v22.19h47.84v-47.84h-22.19z" fill="#624aff"/><path d="m124.79 47.84h25.65v25.65h-25.65z" fill="#36cfd1"/><path d="m0 22.19h25.65v25.65h-25.65z" fill="#36cfd1"/><path d="m198.28 47.84h25.65v25.65h-25.65z" fill="#624aff"/><path d="m198.28 22.19h25.65v25.65h-25.65z" fill="#36cfd1"/><path d="m150.44 0v22.19h25.65v25.65h22.19v-47.84z" fill="#624aff"/><path d="m73.49 47.84h25.65v25.65h-25.65z" fill="#36cfd1"/><path d="m47.84 22.19h25.65v-22.19h-47.84v47.84h22.19z" fill="#624aff"/><path d="m47.84 73.49h-22.19v47.84h47.84v-22.19h-25.65z" fill="#624aff"/></svg>